<!-- Generated by IcoMoon.io -->
<svg version="1.1" xmlns="http://www.w3.org/2000/svg" width="836" height="1024" viewBox="0 0 836 1024">
<g id="icomoon-ignore">
</g>
<path fill="#009fff" d="M414.004 1024.008c0 0 410.21-174.157 410.21-616.76s0-400.894 0-400.894h-820.42v400.894c0 442.603 410.21 616.76 410.21 616.76z"></path>
<path fill="#081b29" opacity="0.968567" d="M129.888 367.151c-8.298-8.987-39.644-42.357-69.658-74.156l-54.572-57.817-0.2-232.58h209.938c115.466 0 209.938 0.887 209.938 1.971s90.921 1.661 202.046 1.281l202.046-0.69-1.49 230.336-21.399 24.807c-18.678 21.652-88.198 104.37-99.617 118.528-3.885 4.818-6.197 2.681-46.505-42.977-81.466-92.278-88.845-99.725-97.944-98.837-6.819 0.666-17.524 11.139-68.489 67.007-49.173 53.903-60.712 65.266-62.049 61.102-2.374-7.398-6.128-6.281-7.095 2.111-0.784 6.806-2.375 5.621-27.318-20.367-80.652-84.029-107.521-110.377-112.561-110.377-4.444 0-65.34 64.723-133.768 142.176-2.427 2.747-4.818 4.955-5.315 4.908s-7.692-7.438-15.989-16.425z"></path>
<path fill="#081b29" opacity="0.968567" d="M320.556 860.923c17.083-17.005 32.101-38.652 41.027-59.134 7.508-17.229 14.519-45.219 14.519-57.966v-9.687h-44.255v-55.969l-21.986 1.566c-42.263 3.011-89.912 24.372-120.58 54.058l-13.626 13.189v-202.527l16.603 15.344c21.401 19.779 44.56 33.518 70.495 41.821 22.221 7.114 58.912 13.111 65.235 10.661 3.037-1.177 3.86-6.833 3.86-26.544v-25.049h44.255v-11.406c0-34.486-21.488-82.84-50.44-113.505l-18.545-19.643 207.586 0.012-16.982 18.174c-29.136 31.181-47.822 70.792-50.622 107.314l-1.461 19.053h42.403v52.561l8.46-0.052c46.537-0.286 100.006-21.803 134.652-54.185l15.683-14.658v203.416l-18.231-17.040c-31.282-29.239-74.897-48.132-117.787-51.024l-22.778-1.536v55.967h-41.651v11.222c0 14.78 8.684 45.916 18.006 64.558 9.832 19.662 29.096 45.302 42.674 56.796l10.908 9.234-212.616 0.103 15.196-15.126z"></path>
<path fill="#009fff" d="M130.252 266.798c0.003 0.019 0.006 0.039 0.010 0.059-0.639 3.313-0.6 5.982-0.156 8.27-0.593 3.005-0.636 5.905-0.15 8.338-0.5 2.654-0.605 5.299-0.134 7.939-0.462 2.618-0.501 5.123-0.118 7.516 2.716 2.099 10.412 2.346 13.853 0.445 0.414-2.387 0.407-5.261-0.022-7.885 0.505-2.633 0.434-5.278-0.033-7.94 0.517-2.426 0.511-5.327-0.044-8.34 0.473-2.281 0.546-4.949-0.051-8.271 0.451-2.544 0.479-5.362-0.060-8.612 0.454-2.579 0.471-5.331-0.063-8.298 0.48-2.532 0.453-5.393-0.071-8.612 0.003-0.026 0.006-0.051 0.010-0.077 0.393-2.554 0.407-5.427-0.061-8.689 0.48-3.097 0.423-5.97-0.067-8.792 0.42-2.677 0.448-5.521-0.061-8.691 0.493-2.545 0.482-5.356-0.061-8.69 0.711-2.706 0.426-6.105-0.086-8.786-0.002-0.011-0.003-0.022-0.006-0.032 0.451-3.147 0.419-5.988-0.035-8.664 0.454-2.89 0.454-5.783-0.061-8.69 0.341-2.878 0.304-5.794-0.067-8.793 0.368-2.86 0.313-5.662-0.095-8.677 0.332-2.629 0.348-5.477-0.095-8.681 0.392-2.76 0.513-5.691 0.002-8.814 0.39-2.826 0.356-5.728-0.099-8.702 0.388-2.696 0.409-5.563-0.106-8.679 0.465-3.119 0.374-5.926-0.094-8.516 0.366-2.883 0.345-4.991 0.013-7.871 0.073-0.881 0.013-2.54-0.090-3.421l-8.687-0.126c-0.369 0.605-0.476 1.82-0.237 3.456-0.43 1.252-0.409 6.661 0.092 7.922-0.501 2.583-0.627 5.388-0.202 8.514-0.555 3.108-0.57 5.976-0.216 8.676-0.494 2.967-0.565 5.868-0.21 8.7-0.55 3.115-0.467 6.048-0.11 8.813-0.485 3.198-0.504 6.045-0.206 8.679-0.446 3.009-0.537 5.81-0.206 8.675-0.409 2.993-0.483 5.907-0.179 8.79-0.552 2.899-0.589 5.792-0.172 8.689-0.489 2.67-0.556 5.509-0.146 8.663-0.551 2.678-0.884 6.088-0.204 8.816-0.585 3.326-0.632 6.136-0.172 8.688-0.549 3.162-0.557 6.006-0.172 8.688-0.525 2.815-0.619 5.687-0.179 8.791-0.514 3.288-0.532 6.185-0.163 8.765-0.565 3.211-0.628 6.071-0.18 8.609-0.572 2.96-0.591 5.711-0.169 8.297-0.576 3.216-0.588 6.015-0.179 8.551z"></path>
<path fill="#009fff" d="M130.156 275.036c3.203 1.495 11.38 1.236 13.301 0.242"></path>
<path fill="#009fff" d="M130.089 266.733c3.057 1.312 10.354 1.243 13.316 0.249"></path>
<path fill="#009fff" d="M130.495 258.045c2.96 1.495 9.984 1.111 12.849 0.247"></path>
<path fill="#009fff" d="M130.665 249.8c3.275 1.495 10.404 1.086 12.616 0.222"></path>
<path fill="#009fff" d="M130.825 241.294c3.518 1.013 9.685 0.973 12.394 0.038"></path>
<path fill="#009fff" d="M130.991 232.599c3.624 0.875 9.277 0.907 12.168 0.043"></path>
<path fill="#009fff" d="M131.158 223.79c3.308 0.852 9.683 0.904 11.933 0.060"></path>
<path fill="#009fff" d="M131.324 215.152c2.871 0.931 8.922 0.852 11.705 0.008"></path>
<path fill="#009fff" d="M131.567 206.435c3.669 0.898 8.745 0.973 11.401 0.035"></path>
<path fill="#009fff" d="M131.737 197.61c3.731 0.893 9.023 0.787 11.165 0.068"></path>
<path fill="#009fff" d="M131.868 188.943c3.688 0.838 9.472 0.535 10.972 0.044"></path>
<path fill="#009fff" d="M132.079 180.474c3.437 0.632 9.231 0.304 10.701-0.177"></path>
<path fill="#009fff" d="M132.255 171.481c3.381 0.921 9.002 0.499 10.457 0.023"></path>
<path fill="#009fff" d="M132.479 163c3.222 0.833 8.292 0.493 10.172-0.185"></path>
<path fill="#009fff" d="M132.742 154.143c3.167 0.694 8.455 0.437 9.85-0.019"></path>
<path fill="#009fff" d="M132.87 145.406c3.159 0.659 8.288 0.372 9.653-0.074"></path>
<path fill="#009fff" d="M133.171 136.735c3.439 0.425 7.82 0.384 9.126-0.043"></path>
<path fill="#009fff" d="M133.375 127.858c2.853 0.609 7.601 0.556 8.862 0.144"></path>
<path fill="#009fff" d="M133.561 119.354c3.11 0.499 7.406 0.467 8.636 0.065"></path>
<path fill="#009fff" d="M133.222 111.472c2.331 0.242 8.054 0.406 9.014 0.092"></path>
<path fill="#009fff" d="M130.009 283.28c3.248 1.495 11.542 1.236 13.49 0.242"></path>
<path fill="#009fff" d="M129.849 291.186c3.295 1.495 11.706 1.236 13.682 0.242"></path>
<path fill="#009fff" d="M142.317 117.751c-3.423 0-6.199 2.802-6.199 6.258s2.776 6.258 6.199 6.258c3.423 0 6.199-2.802 6.199-6.258s-2.776-6.258-6.199-6.258z"></path>
<path fill="#009fff" d="M130.908 117.326c-3.423 0-6.199 2.802-6.199 6.258s2.776 6.258 6.199 6.258c3.423 0 6.199-2.802 6.199-6.258s-2.776-6.258-6.199-6.258z"></path>
<path fill="#009fff" d="M136.691 108.351c-3.423 0-6.199 2.802-6.199 6.258s2.776 6.258 6.199 6.258c3.423 0 6.199-2.802 6.199-6.258s-2.776-6.258-6.199-6.258z"></path>
<path fill="#009fff" d="M156.423 90.859c5.251-1.165 12.807-1.322 23.235-1.6-2.514-0.846-5.303-1.721-9.482-2.842 6.093-0.852 20.6-0.661 24.32-0.696-2.519-1.555-8.768-4.044-10.432-4.385 7.978-1.329 17.509-0.058 24.218 1.029-3.133-1.774-6.672-4.062-11.161-5.295 9.578-0.663 13.377 0.116 22.263 1.321-1.213-1.1-5.342-4.119-9.708-5.377 10.645-1.967 16.613-2.384 27.047-1.536-30.138-13.923-66.705-6.68-88.715 8.635 2.207-3.491 6.965-8.794 11.608-12.793-2.351-0.189-4.584-0.131-7.622 0.425 3.224-3.568 9.29-8.334 13.398-9.982-2.999-0.161-5.534-0.224-8.228 0.313 4.039-3.787 10.132-7.788 15.307-10.451-3.072-0.285-6.209-0.346-9.255 0.215 4.082-4.85 11.215-9.812 17.52-12.838-4.106-0.068-6.634 0.074-10.302 0.803 5.244-4.829 12.258-9.891 21.48-14.592-36.553 4.133-56.732 30.738-58.451 53.27-9.742-21.202-36.274-41.481-72.802-39.935 10.905 3.356 19.569 7.444 26.316 11.582-4.058-0.157-6.757 0.107-11.078 0.843 7.415 2.102 16.178 6.069 21.702 10.414-3.356-0.080-6.649 0.49-9.82 1.286 6.126 1.91 13.554 5.049 18.762 8.308-2.978-0.119-5.636 0.359-8.762 1.013 4.747 1.034 12.339 4.971 16.636 8.135-3.347-0.080-5.716 0.22-8.15 0.801 10.991 4.327 11.695 6.279 14.12 7.747-22.798-4.92-55.752 2.679-81.088 32.395 3.676-3.129 19.366-9.027 24.349-10.381-2.597 3.138-3.496 4.786-5.551 8.723 5.696-4.647 14.299-8.483 22.504-11.783-1.727 2.641-3.602 6.076-4.467 8.275 5.974-3.734 7.795-4.273 20.027-10.145-0.884 1.509-3.319 4.786-4.484 7.895 3.737-2.15 12.618-5.424 18.639-7.608 0.412-0.154-3.623 3.336-5.447 7.514 1.374-0.523 9.725-3.572 10.042-3.659-19.278 13.59-33.651 36.391-30.74 64.124 1.112-4.336 6.206-16.786 9.092-21.764-0.317 3.302 0.424 8.779 1.026 11.227 2.838-8.282 5.958-14.886 10.61-22.061-0.385 4.427-0.279 9.312 0.324 11.32 2.599-6.125 4.648-11.385 11.019-22.724-0.412 1.69-0.501 6.472-0.113 10.697 2.11-4.666 7.010-13.866 11.795-20.672-0.236 2.505-0.685 6.743-0.497 8.504 0.508-0.896 2.019-3.404 3.775-6.208 2.739-4.367 6.078-9.448 7.166-10.265 0.838 0.854 1.634 1.9 2.379 3.101 2.999 4.859 5.147 12.285 5.816 19.976 1.601-3.774 2.291-7.622 2.493-9.657 3.42 7.724 7.277 19.807 7.552 26.464 1.15-3.533 1.745-5.733 2.159-11.266 3.564 5.775 6.667 20.001 6.954 26.175 1.386-2.417 2.533-5.438 3.368-9.947 3.489 7.953 4.867 17.849 5.712 24.678 8.954-32.891-3.896-54.153-19.561-70.377 3.94 2.157 8.923 6.585 13.793 11.92-0.445-2.484-1.798-7.22-2.902-9.713 5.79 4.156 14.325 12.717 16.702 15.187-0.409-3.252-0.87-4.973-2.573-9.121 6.833 4.78 12.934 12.966 16.392 17.477-0.279-2.080-0.83-5.984-2.251-10.472 6.233 4.705 12.441 14.155 15.269 19.481-0.075-3.642-1.085-7.493-1.934-11.462 8.488 7.243 11.623 14.906 14.305 19.535 0.068-29.699-33.979-56.416-65.62-59.201z"></path>
<path fill="#009fff" d="M143.315 91.161c34.495-4.977 78.804 25.018 78.728 58.898-2.684-4.63-5.82-12.292-14.31-19.537 0.853 3.971 1.861 7.823 1.935 11.463-2.826-5.328-9.034-14.777-15.27-19.482 1.421 4.489 1.975 8.394 2.254 10.475-3.459-4.514-9.56-12.7-16.395-17.48 1.705 4.15 2.165 5.869 2.574 9.125-2.377-2.474-10.911-11.036-16.701-15.192 1.105 2.494 2.457 7.231 2.903 9.713-4.872-5.336-9.854-9.763-13.794-11.92"></path>
<path fill="#009fff" d="M135.587 90.747c-20.65-13.432-64.473-10.989-96.287 26.324 3.673-3.129 19.364-9.026 24.349-10.382-2.598 3.138-3.498 4.787-5.552 8.723 5.697-4.649 14.298-8.481 22.502-11.783-1.728 2.642-3.602 6.076-4.463 8.274 5.971-3.736 7.792-4.272 20.024-10.144-0.885 1.51-3.321 4.786-4.482 7.897 3.733-2.15 12.616-5.425 18.635-7.612 0.415-0.151-3.622 3.339-5.445 7.518 1.373-0.525 9.727-3.57 10.041-3.661"></path>
<path fill="#009fff" d="M136.972 85.448c-4.385-24.511-33.471-52.715-76.314-50.903 10.905 3.359 19.571 7.447 26.315 11.583-4.055-0.157-6.755 0.109-11.074 0.845 7.41 2.101 16.176 6.067 21.698 10.412-3.354-0.080-6.648 0.492-9.819 1.288 6.124 1.906 13.553 5.049 18.761 8.306-2.977-0.119-5.636 0.36-8.761 1.013 4.748 1.035 12.338 4.971 16.635 8.135-3.347-0.080-5.718 0.223-8.15 0.801 10.989 4.326 11.696 6.279 14.118 7.75"></path>
<path fill="#009fff" d="M136.668 95.125c-28.702 8.843-56.439 37.354-52.498 74.898 1.111-4.334 6.205-16.787 9.090-21.763-0.315 3.303 0.425 8.778 1.026 11.223 2.838-8.278 5.959-14.884 10.609-22.058-0.382 4.429-0.275 9.313 0.326 11.325 2.599-6.127 4.645-11.386 11.018-22.728-0.413 1.689-0.501 6.47-0.113 10.698 2.11-4.666 7.009-13.867 11.795-20.673-0.236 2.505-0.682 6.744-0.499 8.503 1.304-2.288 9.155-15.133 10.943-16.471"></path>
<path fill="#009fff" d="M120.508 109.891c-1.999 5.714-3.634 11.88-4.268 16.131"></path>
<path fill="#009fff" d="M110.015 117.135c-1.948 5.095-4.351 14.372-5.121 20.29"></path>
<path fill="#009fff" d="M99.47 127.274c-2.868 6.516-5.441 15.932-6.21 20.986"></path>
<path fill="#009fff" d="M168.090 137.27c0.878 5.288 1.309 8.070 0.993 15.655"></path>
<path fill="#009fff" d="M157.178 118.983c1.13 5.905 1.604 9.813 1.588 17.713"></path>
<path fill="#009fff" d="M147.014 107.135c1.259 3.643 2.027 8.327 2.036 14.368"></path>
<path fill="#009fff" d="M201.314 117.108c3.824 4.966 5.683 10.546 6.422 13.414"></path>
<path fill="#009fff" d="M185.793 106.225c3.749 4.459 7.404 12.383 8.605 16.278"></path>
<path fill="#009fff" d="M172.759 101.821c3.225 4.243 5.428 8.737 7.499 13.678"></path>
<path fill="#009fff" d="M63.648 106.688c3.541-3.812 9.048-9.16 19.040-13.285"></path>
<path fill="#009fff" d="M80.599 103.628c4.271-5.456 6.454-8.888 17.655-13.81"></path>
<path fill="#009fff" d="M96.158 101.758c3.524-4.549 9.185-9.705 17.764-12.785"></path>
<path fill="#009fff" d="M110.312 102.042c5.596-5.156 10.756-7.897 17.625-10.838"></path>
<path fill="#009fff" d="M86.974 46.126c7.389 0.819 17.587 3.412 23.82 7.561"></path>
<path fill="#009fff" d="M97.598 57.384c6.722 0.12 15.904 2.146 20.622 4.737"></path>
<path fill="#009fff" d="M106.543 66.98c6.648 0.127 14.976 2.893 21.793 6.836"></path>
<path fill="#009fff" d="M114.415 76.127c8.907 0.793 15.013 4.059 18.984 6.51"></path>
<path fill="#009fff" d="M142.659 84.237c21.020-18.039 61.331-27.88 94.059-12.759-10.435-0.853-16.401-0.432-27.045 1.534 4.364 1.258 8.495 4.279 9.708 5.378-8.886-1.205-12.685-1.984-22.264-1.321 4.489 1.232 8.028 3.521 11.159 5.294-6.705-1.088-16.238-2.356-24.216-1.027 1.663 0.339 7.911 2.826 10.431 4.382-3.721 0.038-18.224-0.153-24.318 0.697 4.179 1.122 6.967 1.996 9.481 2.844-10.43 0.276-17.984 0.433-23.235 1.599"></path>
<path fill="#009fff" d="M209.675 73.011c-6.481-2.647-17.795-3.845-23.61-3.471"></path>
<path fill="#009fff" d="M197.118 77.069c-11.456-3.832-22.344-3.626-27.811-2.791"></path>
<path fill="#009fff" d="M184.062 81.337c-10.077-2.867-21.894-2.938-27.361-2.103"></path>
<path fill="#009fff" d="M170.177 86.415c-9.698-2.358-16.649-2.031-22.116-1.195"></path>
<path fill="#009fff" d="M157.261 97.111c3.967 3.395 6.798 7.38 8.868 12.321"></path>
<path fill="#009fff" d="M133.462 74.482c1.717-22.533 21.895-49.137 58.45-53.27-9.22 4.702-16.233 9.763-21.48 14.593 3.669-0.73 6.194-0.87 10.302-0.803-6.305 3.026-13.436 7.988-17.521 12.837 3.046-0.557 6.182-0.498 9.254-0.211-5.174 2.66-11.265 6.66-15.304 10.448 2.693-0.539 5.228-0.475 8.227-0.314-4.109 1.648-10.172 6.412-13.399 9.983 3.040-0.556 5.272-0.615 7.622-0.425-4.642 3.997-9.399 9.303-11.606 12.792"></path>
<path fill="#009fff" d="M170.429 35.804c-5.337 1.484-12.109 4.328-17.024 7.899"></path>
<path fill="#009fff" d="M163.213 47.836c-5.016 0.884-11.26 3.204-15.404 5.719"></path>
<path fill="#009fff" d="M157.162 58.076c-5.241 0.932-11.199 3.897-16.183 7.707"></path>
<path fill="#009fff" d="M151.99 67.745c-7.962 2.020-12.818 5.946-15.904 8.804"></path>
<path fill="#009fff" d="M131.107 103.161c-1.56 4.052-2.671 9.431-3.186 12.885"></path>
<path fill="#009fff" d="M140.793 93.714c20.353 17.95 45.665 41.063 34.007 83.888-0.846-6.828-2.223-16.723-5.712-24.677-0.836 4.512-1.983 7.532-3.37 9.949-0.285-6.174-3.389-20.399-6.954-26.176-0.413 5.532-1.007 7.733-2.158 11.269-0.276-6.66-4.133-18.741-7.552-26.464-0.203 2.031-0.893 5.882-2.493 9.656-0.834-9.596-3.972-18.779-8.196-23.077"></path>
<path fill="#009fff" d="M689.942 267.879c0.003 0.019 0.006 0.039 0.010 0.059-0.639 3.313-0.6 5.982-0.156 8.27-0.593 3.005-0.636 5.905-0.15 8.338-0.5 2.654-0.605 5.299-0.134 7.939-0.462 2.618-0.501 5.123-0.118 7.516 2.716 2.099 10.412 2.346 13.853 0.445 0.414-2.387 0.407-5.261-0.022-7.885 0.505-2.633 0.434-5.278-0.033-7.94 0.517-2.426 0.511-5.327-0.044-8.34 0.473-2.281 0.546-4.949-0.051-8.271 0.451-2.544 0.479-5.362-0.060-8.612 0.454-2.579 0.471-5.331-0.063-8.298 0.48-2.532 0.453-5.393-0.071-8.612 0.003-0.026 0.006-0.051 0.010-0.077 0.393-2.554 0.407-5.427-0.061-8.689 0.48-3.097 0.423-5.97-0.067-8.792 0.42-2.677 0.448-5.521-0.061-8.691 0.493-2.545 0.482-5.356-0.061-8.69 0.711-2.706 0.426-6.105-0.086-8.786-0.002-0.011-0.003-0.022-0.006-0.032 0.451-3.147 0.419-5.988-0.035-8.664 0.454-2.89 0.454-5.783-0.061-8.69 0.341-2.878 0.304-5.794-0.067-8.793 0.368-2.86 0.313-5.662-0.095-8.677 0.332-2.629 0.348-5.477-0.095-8.681 0.392-2.76 0.513-5.691 0.002-8.814 0.39-2.826 0.356-5.728-0.099-8.702 0.388-2.696 0.409-5.563-0.106-8.679 0.465-3.119 0.374-5.926-0.094-8.516 0.366-2.883 0.345-4.991 0.013-7.871 0.073-0.881 0.013-2.54-0.090-3.421l-8.687-0.126c-0.369 0.605-0.476 1.82-0.237 3.456-0.43 1.252-0.409 6.661 0.092 7.922-0.501 2.583-0.627 5.388-0.202 8.514-0.555 3.108-0.57 5.976-0.216 8.676-0.494 2.967-0.565 5.868-0.21 8.7-0.55 3.115-0.467 6.048-0.11 8.813-0.485 3.198-0.504 6.045-0.206 8.679-0.446 3.009-0.537 5.81-0.206 8.675-0.409 2.993-0.483 5.907-0.179 8.79-0.552 2.899-0.589 5.792-0.172 8.689-0.489 2.67-0.556 5.509-0.146 8.663-0.551 2.678-0.884 6.088-0.204 8.816-0.585 3.326-0.632 6.136-0.172 8.688-0.549 3.162-0.557 6.006-0.172 8.688-0.525 2.815-0.619 5.687-0.179 8.791-0.514 3.288-0.532 6.185-0.163 8.765-0.565 3.211-0.628 6.071-0.18 8.609-0.572 2.96-0.591 5.711-0.169 8.297-0.576 3.216-0.588 6.015-0.179 8.551z"></path>
<path fill="#009fff" d="M689.846 276.117c3.203 1.495 11.38 1.236 13.301 0.242"></path>
<path fill="#009fff" d="M689.779 267.815c3.057 1.312 10.354 1.243 13.316 0.249"></path>
<path fill="#009fff" d="M690.185 259.126c2.96 1.495 9.984 1.111 12.849 0.247"></path>
<path fill="#009fff" d="M690.355 250.882c3.275 1.495 10.404 1.086 12.616 0.222"></path>
<path fill="#009fff" d="M690.515 242.375c3.518 1.013 9.685 0.973 12.394 0.038"></path>
<path fill="#009fff" d="M690.681 233.68c3.624 0.875 9.277 0.907 12.168 0.043"></path>
<path fill="#009fff" d="M690.848 224.871c3.308 0.852 9.683 0.904 11.933 0.060"></path>
<path fill="#009fff" d="M691.014 216.233c2.871 0.931 8.922 0.852 11.705 0.008"></path>
<path fill="#009fff" d="M691.257 207.516c3.669 0.898 8.745 0.973 11.401 0.035"></path>
<path fill="#009fff" d="M691.427 198.691c3.731 0.893 9.023 0.787 11.165 0.068"></path>
<path fill="#009fff" d="M691.558 190.025c3.688 0.838 9.472 0.535 10.972 0.044"></path>
<path fill="#009fff" d="M691.769 181.555c3.437 0.632 9.231 0.304 10.701-0.177"></path>
<path fill="#009fff" d="M691.945 172.563c3.381 0.921 9.002 0.499 10.457 0.023"></path>
<path fill="#009fff" d="M692.169 164.081c3.222 0.833 8.292 0.493 10.172-0.185"></path>
<path fill="#009fff" d="M692.432 155.224c3.167 0.694 8.455 0.437 9.85-0.019"></path>
<path fill="#009fff" d="M692.56 146.487c3.159 0.659 8.288 0.372 9.653-0.074"></path>
<path fill="#009fff" d="M692.861 137.816c3.439 0.425 7.82 0.384 9.126-0.043"></path>
<path fill="#009fff" d="M693.065 128.94c2.853 0.609 7.601 0.556 8.862 0.144"></path>
<path fill="#009fff" d="M693.251 120.435c3.11 0.499 7.406 0.467 8.636 0.065"></path>
<path fill="#009fff" d="M692.912 112.553c2.331 0.242 8.054 0.406 9.014 0.092"></path>
<path fill="#009fff" d="M689.699 284.362c3.248 1.495 11.542 1.236 13.49 0.242"></path>
<path fill="#009fff" d="M689.539 292.267c3.295 1.495 11.706 1.236 13.682 0.242"></path>
<path fill="#009fff" d="M702.006 118.832c-3.423 0-6.199 2.802-6.199 6.258s2.776 6.258 6.199 6.258c3.423 0 6.199-2.802 6.199-6.258s-2.776-6.258-6.199-6.258z"></path>
<path fill="#009fff" d="M690.598 118.407c-3.423 0-6.199 2.802-6.199 6.258s2.776 6.258 6.199 6.258c3.423 0 6.199-2.802 6.199-6.258s-2.776-6.258-6.199-6.258z"></path>
<path fill="#009fff" d="M696.381 109.433c-3.423 0-6.199 2.802-6.199 6.258s2.776 6.258 6.199 6.258c3.423 0 6.199-2.802 6.199-6.258s-2.776-6.258-6.199-6.258z"></path>
<path fill="#009fff" d="M716.112 91.94c5.251-1.165 12.807-1.322 23.235-1.6-2.514-0.846-5.303-1.721-9.482-2.842 6.093-0.852 20.6-0.661 24.32-0.696-2.519-1.555-8.768-4.044-10.432-4.385 7.978-1.329 17.509-0.058 24.218 1.029-3.133-1.774-6.672-4.062-11.161-5.295 9.578-0.663 13.377 0.116 22.263 1.321-1.213-1.1-5.342-4.119-9.708-5.377 10.645-1.967 16.613-2.384 27.047-1.536-30.138-13.923-66.705-6.68-88.715 8.635 2.207-3.491 6.965-8.794 11.608-12.793-2.351-0.189-4.584-0.131-7.622 0.425 3.224-3.568 9.29-8.334 13.398-9.982-2.999-0.161-5.534-0.224-8.228 0.313 4.039-3.787 10.132-7.788 15.307-10.451-3.072-0.285-6.209-0.346-9.255 0.215 4.082-4.85 11.215-9.812 17.52-12.838-4.106-0.068-6.634 0.074-10.302 0.803 5.244-4.829 12.258-9.891 21.48-14.592-36.553 4.133-56.732 30.738-58.451 53.27-9.742-21.202-36.274-41.481-72.802-39.935 10.905 3.356 19.569 7.444 26.316 11.582-4.058-0.157-6.757 0.107-11.078 0.843 7.415 2.102 16.178 6.069 21.702 10.414-3.356-0.080-6.649 0.49-9.82 1.286 6.126 1.91 13.554 5.049 18.762 8.308-2.978-0.119-5.636 0.359-8.762 1.013 4.747 1.034 12.339 4.971 16.636 8.135-3.347-0.080-5.716 0.22-8.15 0.801 10.991 4.327 11.695 6.279 14.12 7.747-22.798-4.92-55.752 2.679-81.088 32.395 3.676-3.129 19.366-9.027 24.349-10.381-2.597 3.138-3.496 4.786-5.551 8.723 5.696-4.647 14.299-8.483 22.504-11.783-1.727 2.641-3.602 6.076-4.467 8.275 5.974-3.734 7.795-4.273 20.027-10.145-0.884 1.509-3.319 4.786-4.484 7.895 3.737-2.15 12.618-5.424 18.639-7.608 0.412-0.154-3.623 3.336-5.447 7.514 1.374-0.523 9.725-3.572 10.042-3.659-19.278 13.59-33.651 36.391-30.74 64.124 1.112-4.336 6.206-16.786 9.092-21.764-0.317 3.302 0.424 8.779 1.026 11.227 2.838-8.282 5.958-14.886 10.61-22.061-0.385 4.427-0.279 9.312 0.324 11.32 2.599-6.125 4.648-11.385 11.019-22.724-0.412 1.69-0.501 6.472-0.113 10.697 2.11-4.666 7.010-13.866 11.795-20.672-0.236 2.505-0.685 6.743-0.497 8.504 0.508-0.896 2.019-3.404 3.775-6.208 2.739-4.367 6.078-9.448 7.166-10.265 0.838 0.854 1.634 1.9 2.379 3.101 2.999 4.859 5.147 12.285 5.816 19.976 1.601-3.774 2.291-7.622 2.493-9.657 3.42 7.724 7.277 19.807 7.552 26.464 1.15-3.533 1.745-5.733 2.159-11.266 3.564 5.775 6.667 20.001 6.954 26.175 1.386-2.417 2.533-5.438 3.368-9.947 3.489 7.953 4.867 17.849 5.712 24.678 8.954-32.891-3.896-54.153-19.561-70.377 3.94 2.157 8.923 6.585 13.793 11.92-0.445-2.484-1.798-7.22-2.902-9.713 5.79 4.156 14.325 12.717 16.702 15.187-0.409-3.252-0.87-4.973-2.573-9.121 6.833 4.78 12.934 12.966 16.392 17.477-0.279-2.080-0.83-5.984-2.251-10.472 6.233 4.705 12.441 14.155 15.269 19.481-0.075-3.642-1.085-7.493-1.934-11.462 8.488 7.243 11.623 14.906 14.305 19.535 0.068-29.699-33.979-56.416-65.62-59.201z"></path>
<path fill="#009fff" d="M703.005 92.242c34.495-4.977 78.804 25.018 78.728 58.898-2.684-4.63-5.82-12.292-14.31-19.537 0.853 3.971 1.861 7.823 1.935 11.463-2.826-5.328-9.034-14.777-15.27-19.482 1.421 4.489 1.975 8.394 2.254 10.475-3.459-4.514-9.56-12.7-16.395-17.48 1.705 4.15 2.165 5.869 2.574 9.125-2.377-2.474-10.911-11.036-16.701-15.192 1.105 2.494 2.457 7.231 2.903 9.713-4.872-5.336-9.854-9.763-13.794-11.92"></path>
<path fill="#009fff" d="M695.277 91.828c-20.65-13.432-64.473-10.989-96.287 26.324 3.673-3.129 19.364-9.026 24.349-10.382-2.598 3.138-3.498 4.787-5.552 8.723 5.697-4.649 14.298-8.481 22.502-11.783-1.728 2.642-3.602 6.076-4.463 8.274 5.971-3.736 7.792-4.272 20.024-10.144-0.885 1.51-3.321 4.786-4.482 7.897 3.733-2.15 12.616-5.425 18.635-7.612 0.415-0.151-3.622 3.339-5.445 7.518 1.373-0.525 9.727-3.57 10.041-3.661"></path>
<path fill="#009fff" d="M696.662 86.529c-4.385-24.511-33.471-52.715-76.314-50.903 10.905 3.359 19.571 7.447 26.315 11.583-4.055-0.157-6.755 0.109-11.074 0.845 7.41 2.101 16.176 6.067 21.698 10.412-3.354-0.080-6.648 0.492-9.819 1.288 6.124 1.906 13.553 5.049 18.761 8.306-2.977-0.119-5.636 0.36-8.761 1.013 4.748 1.035 12.338 4.971 16.635 8.135-3.347-0.080-5.718 0.223-8.15 0.801 10.989 4.326 11.696 6.279 14.118 7.75"></path>
<path fill="#009fff" d="M696.358 96.206c-28.702 8.843-56.439 37.354-52.498 74.898 1.111-4.334 6.205-16.787 9.090-21.763-0.315 3.303 0.425 8.778 1.026 11.223 2.838-8.278 5.959-14.884 10.609-22.058-0.382 4.429-0.275 9.313 0.326 11.325 2.599-6.127 4.645-11.386 11.018-22.728-0.413 1.689-0.501 6.47-0.113 10.698 2.11-4.666 7.009-13.867 11.795-20.673-0.236 2.505-0.682 6.744-0.499 8.503 1.304-2.288 9.155-15.133 10.943-16.471"></path>
<path fill="#009fff" d="M680.198 110.972c-1.999 5.714-3.634 11.88-4.268 16.131"></path>
<path fill="#009fff" d="M669.705 118.216c-1.948 5.095-4.351 14.372-5.121 20.29"></path>
<path fill="#009fff" d="M659.16 128.356c-2.868 6.516-5.441 15.932-6.21 20.986"></path>
<path fill="#009fff" d="M727.78 138.351c0.878 5.288 1.309 8.070 0.993 15.655"></path>
<path fill="#009fff" d="M716.868 120.065c1.13 5.905 1.604 9.813 1.588 17.713"></path>
<path fill="#009fff" d="M706.704 108.217c1.259 3.643 2.027 8.327 2.036 14.368"></path>
<path fill="#009fff" d="M761.003 118.189c3.824 4.966 5.683 10.546 6.422 13.414"></path>
<path fill="#009fff" d="M745.483 107.306c3.749 4.459 7.404 12.383 8.605 16.278"></path>
<path fill="#009fff" d="M732.449 102.902c3.225 4.243 5.428 8.737 7.499 13.678"></path>
<path fill="#009fff" d="M623.338 107.769c3.541-3.812 9.048-9.16 19.040-13.285"></path>
<path fill="#009fff" d="M640.289 104.709c4.271-5.456 6.454-8.888 17.655-13.81"></path>
<path fill="#009fff" d="M655.848 102.839c3.524-4.549 9.185-9.705 17.764-12.785"></path>
<path fill="#009fff" d="M670.002 103.124c5.596-5.156 10.756-7.897 17.625-10.838"></path>
<path fill="#009fff" d="M646.664 47.208c7.389 0.819 17.587 3.412 23.82 7.561"></path>
<path fill="#009fff" d="M657.288 58.465c6.722 0.12 15.904 2.146 20.622 4.737"></path>
<path fill="#009fff" d="M666.233 68.061c6.648 0.127 14.976 2.893 21.793 6.836"></path>
<path fill="#009fff" d="M674.105 77.209c8.907 0.793 15.013 4.059 18.984 6.51"></path>
<path fill="#009fff" d="M702.349 85.318c21.020-18.039 61.331-27.88 94.059-12.759-10.435-0.853-16.401-0.432-27.045 1.534 4.364 1.258 8.495 4.279 9.708 5.378-8.886-1.205-12.685-1.984-22.264-1.321 4.489 1.232 8.028 3.521 11.159 5.294-6.705-1.088-16.238-2.356-24.216-1.027 1.663 0.339 7.911 2.826 10.431 4.382-3.721 0.038-18.224-0.153-24.318 0.697 4.179 1.122 6.967 1.996 9.481 2.844-10.43 0.276-17.984 0.433-23.235 1.599"></path>
<path fill="#009fff" d="M769.365 74.093c-6.481-2.647-17.795-3.845-23.61-3.471"></path>
<path fill="#009fff" d="M756.808 78.151c-11.456-3.832-22.344-3.626-27.811-2.791"></path>
<path fill="#009fff" d="M743.752 82.418c-10.077-2.867-21.894-2.938-27.361-2.103"></path>
<path fill="#009fff" d="M729.867 87.496c-9.698-2.358-16.649-2.031-22.116-1.195"></path>
<path fill="#009fff" d="M716.951 98.192c3.967 3.395 6.798 7.38 8.868 12.321"></path>
<path fill="#009fff" d="M693.152 75.563c1.717-22.533 21.895-49.137 58.45-53.27-9.22 4.702-16.233 9.763-21.48 14.593 3.669-0.73 6.194-0.87 10.302-0.803-6.305 3.026-13.436 7.988-17.521 12.837 3.046-0.557 6.182-0.498 9.254-0.211-5.174 2.66-11.265 6.66-15.304 10.448 2.693-0.539 5.228-0.475 8.227-0.314-4.109 1.648-10.172 6.412-13.399 9.983 3.040-0.556 5.272-0.615 7.622-0.425-4.642 3.997-9.399 9.303-11.606 12.792"></path>
<path fill="#009fff" d="M730.119 36.885c-5.337 1.484-12.109 4.328-17.024 7.899"></path>
<path fill="#009fff" d="M722.903 48.918c-5.016 0.884-11.26 3.204-15.404 5.719"></path>
<path fill="#009fff" d="M716.852 59.157c-5.241 0.932-11.199 3.897-16.183 7.707"></path>
<path fill="#009fff" d="M711.68 68.826c-7.962 2.020-12.818 5.946-15.904 8.804"></path>
<path fill="#009fff" d="M690.796 104.242c-1.56 4.052-2.671 9.431-3.186 12.885"></path>
<path fill="#009fff" d="M700.483 94.795c20.353 17.95 45.665 41.063 34.007 83.888-0.846-6.828-2.223-16.723-5.712-24.677-0.836 4.512-1.983 7.532-3.37 9.949-0.285-6.174-3.389-20.399-6.954-26.176-0.413 5.532-1.007 7.733-2.158 11.269-0.276-6.66-4.133-18.741-7.552-26.464-0.203 2.031-0.893 5.882-2.493 9.656-0.834-9.596-3.972-18.779-8.196-23.077"></path>
<path fill="#081b29" d="M463.374 193.543c0 0 0.093 20.959-0.254 28.711-0.391 8.736 0.934 20.769-2.034 29.087-1.057 2.961-3.514 6.731-6.103 8.772-2.526 1.992-10.171 4.155-10.171 4.155s4.637-19.298 4.577-27.702c-0.049-6.877-3.335-15.779-4.069-22.623-0.458-4.276-2.571-10.446-0.508-14.313 1.901-3.565 11.697-7.849 11.697-7.849z"></path>
<path fill="#081b29" d="M386.8 190.961c0 0 0.088 22.307 0.508 31.857 0.373 8.46 0.033 19.894 2.034 28.164 0.456 1.884 1.501 4.321 2.543 6.002 2.080 3.356 5.17 7.95 8.646 10.157 2.886 1.833 7.69 2.854 11.188 3.232 2.127 0.229 7.12-0.462 7.12-0.462l2.034-0.923c0 0-4.473-2.352-6.103-3.694-1.606-1.322-3.51-3.365-4.577-5.079-1.116-1.793-1.869-4.498-2.543-6.464-0.704-2.053-1.726-4.793-2.034-6.925-0.555-3.845 0.053-9.050 0-12.928-0.076-5.542-0.349-12.928-0.509-18.468-0.292-10.111-1.017-33.704-1.017-33.704z"></path>
<path fill="#009fff" d="M486.741 51.146c0 0-7.161-8.962-10.843-12.305-2.455-2.229-6.086-4.9-9.036-6.563-3.812-2.149-9.145-4.984-13.553-5.742-4.27-0.734-10.282-0.273-14.457 0.82-3.263 0.855-6.543 4.867-9.939 4.922-3.030 0.049-6.139-3.293-9.036-4.102-3.921-1.094-9.451-1.671-13.554-1.641-5.482 0.042-13.014 0.54-18.071 2.461-3.751 1.425-8.074 4.68-10.843 7.383-3.073 2.999-8.132 11.484-8.132 11.484l-0.904 0.82c0 0-8.064-3.112-11.746-3.281-2.761-0.127-6.675 0.336-9.036 1.641-4.448 2.458-8.221 8.22-10.843 12.305-2.94 4.58-4.742 11.61-7.229 16.406-1.447 2.79-4.583 6.036-5.422 9.024-1.071 3.815-0.872 9.268 0 13.125 1.245 5.508 5.282 12.235 8.133 17.227 1.904 3.335 5.808 7.136 7.229 10.664 1.881 4.675 2.575 11.431 2.711 16.406 0.134 4.945-1.385 11.475-1.807 16.406-0.379 4.423 2.872 11.796 6.040 15.698 1.709 2.106 5.958 10.010 8.656 10.93 1.777 0.606 5.081 3.442 6.896 2.882 2.502-0.772 5.175-2.976 6.943-4.922 1.886-2.075 4.345-6.008 5.66-8.491 0.761-1.438 2.54 11.069 5.563 14.255 1.822 1.919 8.133 4.102 8.133 4.102l6.325-2.461 8.132 0.82c0 0-2.482 15.088-0.903 21.328 1.031 4.077 5.382 8.472 7.229 12.305 2.645 5.491 5.016 13.221 7.228 18.867 2.127 5.428 5.060 12.633 7.229 18.047 1.084 2.707 2.686 6.269 3.614 9.024 1.308 3.881 3.614 13.125 3.614 13.125s0.131 9.293-0.903 13.125c-0.636 2.354-1.77 5.63-3.614 7.383-0.838 0.796-2.407 1.74-3.614 1.641-1.35-0.11-3.009-1.36-3.615-2.461-0.849-1.541-0.579-4.102 0-5.742 0.712-2.016 4.972-3.666 4.518-5.742-0.498-2.277-7.229-4.102-7.229-4.102l-8.132-7.383h-3.614c0 0-2.009 8.019-2.711 11.484-0.645 3.183-1.83 7.427-1.807 10.664 0.021 2.994 0.787 6.997 1.807 9.844 1.125 3.14 2.651 7.704 5.421 9.844 3.461 2.673 9.913 4.093 14.457 4.102 3.687 0.008 8.663-1.446 11.747-3.281 4.18-2.488 8.549-7.453 10.843-11.484 3.078-5.409 3.95-13.748 5.422-19.688 1.213-4.897 3.231-11.399 3.614-16.406 0.32-4.181-0.265-9.795-0.904-13.945-0.692-4.494-3.069-10.255-3.614-14.766-0.325-2.691 0-6.316 0-9.024 0-5.168-0.455-12.075 0-17.227 0.68-7.703 5.026-26.468 5.026-26.468s5.56-0.972 7.624 0.042c1.318 0.646 2.711 3.459 2.711 3.459s3.062-5.6 3.614-8.203c0.513-2.417 0-5.742 0-8.203 0-1.23-1.028-3.3 0-4.102 2.706-2.108 9.163 9.696 11.264 9.996 3.224 0.462 5.148 0.841 7.855-0.819 2.875-1.762 6.393-8.695 8.656-11.085 3.126-3.302 4.086-12.411 6.561-16.14 2.522-3.8 4.446-9.598 5.421-13.945 0.867-3.866-0.317-9.339 0.904-13.125 1.568-4.863 6.295-10.351 9.036-14.766 1.073-1.729 2.912-3.864 3.614-5.742 1.935-5.174 2.303-12.595 2.711-18.047 0.422-5.647 0.998-13.28 0-18.867-1.099-6.145-3.623-14.392-7.229-19.688-1.411-2.072-3.846-4.81-6.325-5.742-1.503-0.565-3.795 0-5.421 0-2.711 0-6.611-1.101-9.036 0s-2.711 6.631-5.421 6.563c-1.954-0.049-3.614-4.922-3.614-4.922z"></path>
<path fill="#009fff" d="M467.658 177.624c0 0 2.353-4.342-2.093-10.084 0.656-1.682 0.569-5.471 2.528-5.548 2.674-0.105 6.737 0.205 9.31-0.814 2.99-1.185 8.132-6.563 8.132-6.563"></path>
<path fill="#081b29" d="M378.342 125.907c0 0 8.37 2.767 11.177 5.146 2.446 2.072 4.254 6.123 5.961 8.821 1.645 2.599 4.195 5.928 5.216 8.821 0.52 1.473 2.293 4.83 0.745 5.146-2.496 0.51-0.079-6.745-2.235-8.086-2.115-1.315-5.811 2.205-8.196 1.47-2.414-0.744-4.866-3.632-5.961-5.881-0.877-1.8-1.415-4.731-0.745-6.616 0.419-1.177 2.981-2.94 2.981-2.94"></path>
<path fill="#081b29" d="M475.568 128.475c0 0-8.397 2.593-11.213 4.823-2.453 1.942-4.267 5.739-5.98 8.267-1.65 2.436-4.208 5.556-5.232 8.267-0.522 1.38-2.3 4.526-0.748 4.823 2.503 0.478 0.079-6.322 2.242-7.578 2.121-1.232 5.829 2.067 8.222 1.378 2.422-0.697 4.881-3.404 5.98-5.511 0.88-1.687 1.42-4.434 0.748-6.2-0.42-1.103-2.99-2.756-2.99-2.756"></path>
<path fill="#009fff" d="M374.485 175.077c0 0-6.362-11.39-7.87-16.314-1.731-5.653-2.674-13.552-2.567-19.419 0.112-6.129 2.037-14.196 3.422-20.196 0.818-3.541 2.811-8.077 3.422-11.652 0.828-4.841 2.994-11.814 0.856-16.312-0.938-1.973-3.624-4.591-5.99-4.661-1.283-0.038-3.402 1.165-3.422 2.33-0.025 1.492 4.278 3.107 4.278 3.107s0 0 0 0 0 0 0 0 0 1.554 0 1.554"></path>
<path fill="#009fff" d="M485.121 155.668c0 0 0.267-19.536-0.431-27.2-0.257-2.825-2.294-6.536-1.711-9.321 1.117-5.34 8.264-10.414 10.267-15.535 1.214-3.106 2.462-7.651 1.711-10.875-0.501-2.151-4.118-4.021-4.278-6.214-0.205-2.81 1.273-7.847 4.278-8.544 2.487-0.577 5.891 2.497 6.845 4.661 0.581 1.316-0.856 4.661-0.856 4.661"></path>
<path fill="#081b29" d="M423.355 189.931c-0.411 0.025-1.167 0.029-1.308 0.422-0.3 0.843 0.343 1.673 1.571 2.523 1.13 0.782 3.088 0.736 4.486 0.995 2.919 0.542 6.325 1.15 8.536 1.337 2.738 0.231 6.184 0 8.673 0 3.080 0 8.816 0 8.816 0l-0.763-3.215c0 0-4.973 0.259-8.053 0.259-2.645 0-6.025 0.2-8.398 0-1.95-0.164-5.374-0.731-8.26-1.266s-3.683-1.149-5.3-1.055z"></path>
<path fill="#081b29" d="M428.105 206.465c-0.433-0.049-1.133 0.049-1.4 0.4-0.384 0.506-0.364 1.582-0.046 2.133 0.569 0.982 1.474 0.831 3.304 1.759s3.943 1.925 5.713 2.251c2.381 0.44 5.778 0.221 8.742-0.070s4.196-0.387 4.196-0.387l0.449-3.138c0 0-2.048 0.287-4.921 0.57s-6.333 0.446-7.985 0.141c-1.041-0.192-3.211-1.086-4.956-1.97s-2.050-1.572-3.098-1.689z"></path>
<path fill="#081b29" d="M434.644 240.448c-0.441 0.112-0.949 0.631-1.094 1.071-0.166 0.501-0.078 1.348 0.268 1.743 0.628 0.717 1.355 0.434 3.029 0.844s3.55 0.83 5.094 0.774c1.236-0.045 2.635-0.448 3.855-0.844s1.396-0.711 1.396-0.711l0.209-2.871c0 0-1.367 0.399-2.499 0.767s-2.515 0.755-3.029 0.774c-0.821 0.029-2.751-0.315-4.337-0.704s-2.015-1.066-2.891-0.844z"></path>
<path fill="#081b29" d="M439.050 255.294c-0.464 0.049-1.12 0.408-1.322 0.838-0.235 0.5-0.114 1.398 0.22 1.836 0.599 0.785 1.364 0.616 3.029 1.196s3.585 1.177 5.162 1.266c1.016 0.057 2.010-0.209 2.96-0.422s1.41-0.422 1.41-0.422l-0.633-2.561c0 0-0.535-0.025-1.397 0.169s-1.912 0.298-2.203 0.282c-0.853-0.048-2.827-0.575-4.405-1.126s-1.925-1.149-2.822-1.055z"></path>
<path fill="#081b29" d="M451.066 178.618c0 0-0.913 0.155-3.206 0.83s-5.003 1.336-6.47 1.478c-2.558 0.248-7.22-0.189-11.082-0.774s-4.641-1.861-6.597-1.353c-0.49 0.127-1.256 0.589-1.294 1.104-0.064 0.887 1.166 1.786 1.929 2.214 1.478 0.829 1.604 0.323 5.549 0.92s8.521 1.152 11.702 0.844c1.96-0.19 4.737-0.926 7.090-1.618s2.84-0.64 2.84-0.64z"></path>
<path fill="#009fff" d="M370.521 46.4l14.373 12.796c2.284 2.034 5.167 3.315 7.857 4.669 0.632 0.318 1.411 0.434 2.108 0.346 2.050-0.258 4.071-1.029 6.133-1.383 1.963-0.337 4.062-1.141 5.941-0.692 3.423 0.819 6.627 3.038 9.965 4.496 2.602 1.136 5.117 2.82 7.857 3.286 3.712 0.63 7.667-0.058 11.499 0 3.77 0.057 7.753 1.088 11.307 0.346 2.515-0.526 4.494-2.978 6.899-4.15 6.347-3.093 12.904-5.764 19.356-8.646 0 0 0.438-4.49 1.725-5.706 2.034-1.923 9.007-2.075 9.007-2.075s-2.859-3.815-4.216-5.361c-1.998-2.277-4.741-5.279-7.091-7.263-2.754-2.325-6.7-5.213-9.965-6.917-2.209-1.153-5.393-2.342-7.857-2.94-2.52-0.612-6.014-1.066-8.624-1.038-2.212 0.025-5.226 0.303-7.282 1.038-1.616 0.577-3.333 2.086-4.791 2.94-1.191 0.698-2.659 1.206-4.025 1.556-0.608 0.156-1.483 0.778-2.108 0.692-0.953-0.131-2.2-0.482-3.066-0.865-1.447-0.639-2.93-2.187-4.408-2.767-2.751-1.079-6.791-1.615-9.774-1.902-3.259-0.313-7.656-0.223-10.924 0-2.667 0.182-6.248 0.533-8.815 1.21-2.174 0.574-5.012 1.636-6.899 2.767-2.169 1.299-4.622 3.584-6.324 5.361-1.971 2.057-4.033 5.2-5.749 7.436-0.635 0.828-2.108 2.767-2.108 2.767z"></path>
</svg>
