<?xml version="1.0" standalone="no"?>
<!DOCTYPE svg PUBLIC "-//W3C//DTD SVG 20010904//EN"
 "http://www.w3.org/TR/2001/REC-SVG-20010904/DTD/svg10.dtd">
<svg version="1.0" xmlns="http://www.w3.org/2000/svg"
 width="225.000000pt" height="225.000000pt" viewBox="0 0 225.000000 225.000000"
 preserveAspectRatio="xMidYMid meet">
<metadata>
Created by potrace 1.10, written by Peter Selinger 2001-2011
</metadata>
<g transform="translate(0.000000,225.000000) scale(0.100000,-0.100000)"
fill="#009fff" stroke="none">
<path d="M1623 1795 c-12 -8 -44 -20 -72 -26 -28 -6 -73 -26 -99 -44 -26 -19
-87 -62 -137 -96 -49 -34 -110 -80 -135 -103 -56 -52 -142 -116 -198 -147 -27
-14 -54 -41 -74 -73 -17 -28 -43 -64 -57 -79 -33 -36 -127 -93 -168 -102 -37
-7 -83 -41 -83 -60 0 -7 -10 -19 -21 -27 -15 -9 -24 -30 -30 -68 -5 -30 -20
-77 -35 -103 l-26 -49 22 -23 c13 -14 27 -22 32 -19 5 3 28 8 50 10 23 2 52
11 66 20 28 18 52 12 52 -14 0 -21 36 -72 51 -72 13 0 44 30 58 57 11 22 13
22 39 6 15 -9 55 -39 88 -65 34 -26 66 -48 71 -48 6 0 18 -9 29 -21 10 -12 32
-28 48 -36 16 -8 38 -23 48 -33 13 -12 57 -22 148 -34 159 -21 276 -49 351
-82 l58 -26 27 26 28 26 -20 27 c-11 14 -40 34 -65 42 -64 23 -72 30 -66 59 5
28 -12 47 -98 112 -53 40 -88 73 -127 122 -18 23 -43 39 -80 51 -64 20 -178
86 -178 103 0 30 140 114 189 114 23 0 71 37 71 54 0 20 -35 47 -72 56 -18 5
-48 14 -66 21 -30 12 -37 11 -78 -10 -24 -13 -48 -21 -51 -17 -4 4 1 24 12 44
28 51 139 124 249 162 113 40 164 64 202 95 16 13 52 42 80 64 53 41 104 117
104 156 0 53 -87 85 -137 50z m101 -40 c7 -20 -3 -45 -19 -45 -7 0 -16 -14
-20 -30 -6 -25 -58 -80 -77 -80 -3 0 -22 -15 -42 -34 -36 -33 -207 -106 -283
-121 -18 -4 -33 -12 -33 -18 0 -7 -25 -25 -56 -41 -31 -16 -63 -40 -71 -53 -9
-13 -30 -31 -47 -39 -17 -8 -23 -12 -13 -9 14 4 16 0 11 -23 -4 -15 -15 -41
-26 -59 -10 -17 -15 -34 -9 -37 5 -3 33 -1 62 5 70 14 248 17 251 4 2 -5 -20
-13 -48 -17 -28 -4 -74 -20 -101 -35 -62 -34 -153 -102 -153 -113 0 -14 86
-80 104 -80 9 0 16 -4 16 -10 0 -11 80 -48 140 -63 30 -8 46 -18 48 -30 4 -17
-3 -19 -82 -15 -47 3 -86 2 -86 -2 0 -4 43 -10 96 -13 101 -6 126 -16 105 -41
-10 -12 -6 -15 21 -21 68 -15 80 -23 68 -45 -9 -17 -8 -20 10 -20 11 0 37 -7
57 -15 27 -11 34 -18 26 -26 -8 -8 -36 -7 -100 5 -91 17 -159 21 -88 5 183
-40 196 -44 180 -61 -3 -3 -36 1 -73 8 -121 24 -140 13 -22 -12 125 -26 236
-60 245 -75 16 -25 -10 -27 -53 -4 -59 31 -223 71 -370 90 -62 8 -120 15 -128
15 -7 0 -14 5 -14 12 0 8 38 10 143 6 80 -3 127 -2 107 2 -51 12 -221 30 -280
30 -34 0 -50 4 -48 11 4 12 190 14 236 2 13 -3 22 -1 22 6 0 6 -12 11 -27 12
-16 0 -37 2 -48 4 -61 11 -182 25 -216 25 -28 0 -39 4 -39 15 0 8 -7 15 -15
15 -8 0 -15 7 -15 15 0 8 -9 15 -20 15 -11 0 -20 7 -20 15 0 10 -7 15 -17 13
-12 -2 -18 3 -17 13 1 11 -7 17 -24 17 -15 0 -28 5 -30 11 -2 6 -10 18 -18 25
-8 8 -14 20 -14 26 0 6 -6 10 -12 8 -9 -3 -13 -26 -13 -64 -1 -33 -4 -65 -9
-72 -13 -22 -26 -13 -26 18 0 17 -6 39 -12 50 -10 15 -10 22 0 32 16 16 15 25
-4 32 -9 3 -36 -10 -69 -35 -63 -48 -101 -44 -44 4 22 19 26 25 11 17 -13 -6
-41 -27 -62 -46 -23 -21 -41 -31 -45 -24 -7 11 58 95 80 104 8 3 15 11 15 17
0 7 -8 5 -20 -6 -11 -10 -23 -15 -27 -11 -4 4 24 36 62 71 39 35 66 64 60 65
-5 0 -3 5 5 10 11 7 2 8 -27 4 -27 -4 -43 -3 -43 4 0 5 23 13 50 17 29 4 72
20 102 38 75 47 158 131 158 161 0 20 68 74 103 82 17 3 32 14 35 26 3 11 16
21 33 25 16 3 29 11 29 17 1 20 70 55 157 81 82 24 110 35 85 35 -6 0 -45 -11
-87 -24 -41 -13 -75 -21 -75 -17 0 4 42 36 93 70 50 34 119 81 152 105 42 31
72 45 103 49 24 3 51 12 60 21 21 21 88 21 96 1z m-474 -545 c0 -5 -18 -10
-40 -10 -22 0 -40 5 -40 10 0 6 18 10 40 10 22 0 40 -4 40 -10z m-610 -195
c-58 -36 -70 -41 -70 -26 0 10 96 61 114 61 6 0 -14 -16 -44 -35z"/>
<path d="M980 849 c-84 -14 -84 -19 0 -13 41 3 79 10 85 15 11 11 -9 10 -85
-2z"/>
</g>
</svg>
