<?xml version="1.0" standalone="no"?>
<!DOCTYPE svg PUBLIC "-//W3C//DTD SVG 20010904//EN"
 "http://www.w3.org/TR/2001/REC-SVG-20010904/DTD/svg10.dtd">
<svg version="1.0" xmlns="http://www.w3.org/2000/svg"
 width="300.000000pt" height="207.000000pt" viewBox="0 0 300.000000 207.000000"
 preserveAspectRatio="xMidYMid meet">
<metadata>
Created by potrace 1.10, written by Peter Selinger 2001-2011
</metadata>
<g transform="translate(0.000000,207.000000) scale(0.100000,-0.100000)"
fill="#009fff" stroke="none">
<path d="M1255 2019 c-110 -22 -240 -48 -290 -57 l-90 -17 4 -450 c4 -494 2
-483 67 -562 80 -98 319 -235 483 -278 57 -15 61 -14 137 11 227 76 433 219
490 340 l24 51 -2 449 -3 449 -45 7 c-25 4 -160 27 -300 52 -140 25 -259 46
-265 45 -5 0 -100 -18 -210 -40z m460 -58 c88 -16 193 -35 233 -42 l73 -12 -3
-437 -3 -437 -27 -35 c-66 -86 -156 -154 -292 -220 -170 -84 -206 -91 -299
-59 -198 68 -418 223 -445 313 -6 19 -13 215 -15 449 l-6 417 237 47 c130 26
253 50 272 54 19 4 53 4 75 -1 22 -4 112 -20 200 -37z"/>
<path d="M1414 1918 c-11 -17 11 -28 44 -22 44 9 42 32 -3 32 -19 0 -38 -4
-41 -10z"/>
<path d="M1517 1911 c-4 -18 -1 -21 23 -21 16 0 32 -4 35 -10 11 -18 25 -10
25 15 0 17 -6 25 -17 25 -10 0 -28 3 -39 6 -16 4 -23 0 -27 -15z"/>
<path d="M1323 1913 c-16 -3 -23 -11 -22 -26 0 -21 1 -21 8 -2 8 19 8 19 19 0
10 -18 11 -18 12 -2 0 19 15 23 26 6 4 -8 9 -7 15 2 18 29 4 34 -58 22z"/>
<path d="M1610 1891 c0 -17 6 -21 30 -21 37 0 40 0 68 -11 20 -8 23 -6 20 8
-2 10 -10 18 -18 18 -8 0 -19 3 -25 7 -5 3 -25 9 -42 13 -29 6 -33 4 -33 -14z"/>
<path d="M1238 1893 c-18 -3 -25 -9 -21 -19 6 -17 30 -18 36 -1 4 9 8 8 16 -3
5 -8 13 -11 17 -8 8 9 -3 39 -13 37 -4 -1 -20 -4 -35 -6z"/>
<path d="M1170 1880 c-8 -5 -25 -10 -37 -10 -15 0 -23 -6 -24 -17 0 -11 -3
-13 -6 -5 -2 6 -13 12 -24 12 -12 0 -16 -5 -13 -15 8 -19 38 -19 57 0 12 11
17 12 21 2 3 -8 9 -6 20 7 9 11 16 14 16 8 0 -7 6 -12 14 -12 9 0 12 7 9 20
-6 22 -11 24 -33 10z"/>
<path d="M1450 1881 c-8 -4 -111 -25 -227 -47 l-213 -38 0 -211 0 -210 232 0
233 0 2 -304 c1 -167 4 -305 6 -307 5 -5 117 41 192 78 93 47 205 129 237 172
l28 39 0 164 0 163 -230 0 -230 0 -2 188 c-3 345 -2 327 -28 313z m-14 -119
c-4 -3 -16 4 -29 16 -14 13 -36 22 -56 22 -52 0 -32 23 30 35 l54 11 3 -39 c2
-22 1 -42 -2 -45z m-314 -159 c2 -98 3 -179 3 -180 0 0 -9 -3 -20 -5 -19 -3
-20 3 -23 180 -2 176 -2 182 17 182 19 0 20 -8 23 -177z m261 155 c46 -24 71
-112 46 -161 -29 -57 -48 -67 -125 -67 l-72 0 5 -58 c5 -57 5 -59 -18 -57
l-24 2 -3 179 -2 179 87 -4 c49 -2 96 -7 106 -13z m62 -275 c-2 -32 -4 -61 -4
-65 -1 -5 -45 -8 -98 -8 -59 0 -93 4 -84 9 8 5 11 17 7 28 -9 27 24 56 55 48
16 -3 38 3 64 19 61 37 65 34 60 -31z m368 -168 c-1 -16 -7 -31 -13 -33 -5 -2
-8 -8 -5 -12 3 -5 1 -11 -5 -15 -5 -3 -10 -1 -10 5 0 6 -9 29 -19 51 l-20 40
37 -3 c34 -3 37 -5 35 -33z m-187 -81 c13 -54 28 -121 34 -149 7 -27 14 -57
16 -66 3 -10 -3 -18 -15 -22 -21 -5 -31 10 -31 49 0 22 -4 24 -45 24 -39 0
-45 -3 -45 -21 0 -32 -18 -59 -36 -52 -16 6 -16 7 16 148 11 44 24 105 30 136
9 47 14 55 32 54 18 -1 24 -15 44 -101z m90 98 c5 -4 23 -51 39 -104 16 -54
32 -98 35 -98 3 0 16 39 29 88 28 103 37 122 56 122 13 0 15 -27 15 -170 0
-162 -1 -170 -20 -170 -18 0 -20 8 -22 103 l-3 102 -23 -87 c-13 -49 -29 -88
-35 -88 -7 0 -20 33 -30 73 -27 108 -37 105 -30 -11 6 -98 5 -101 -15 -99 -20
1 -21 7 -24 170 -3 186 -3 190 28 169z m-103 -332 c16 -27 23 -30 67 -30 38 0
52 5 67 23 13 15 26 21 46 19 61 -7 39 -57 -38 -87 -25 -9 -45 -20 -45 -24 0
-9 -134 -76 -167 -84 -27 -6 -33 8 -33 83 0 46 4 62 18 72 11 7 24 23 31 36
16 30 33 28 54 -8z"/>
<path d="M1231 1650 l1 -80 58 0 c77 0 105 21 105 80 0 59 -28 80 -106 80
l-59 0 1 -80z m109 32 c42 -34 -2 -99 -55 -78 -10 4 -15 20 -15 51 0 41 2 45
24 45 13 0 34 -8 46 -18z"/>
<path d="M1567 1203 c-3 -27 -9 -56 -12 -65 -6 -15 -2 -18 25 -18 31 0 32 1
26 33 -4 17 -10 47 -13 65 -8 46 -19 40 -26 -15z"/>
<path d="M1750 1860 c0 -11 6 -20 14 -20 8 0 21 -3 30 -6 12 -5 16 0 16 20 0
28 -17 35 -26 11 -4 -8 -10 -12 -15 -9 -5 3 -7 10 -4 15 4 5 1 9 -4 9 -6 0
-11 -9 -11 -20z"/>
<path d="M1824 1855 c-8 -20 5 -38 22 -31 8 3 33 0 54 -8 39 -13 40 -13 40 10
0 20 -5 24 -32 25 -18 1 -36 1 -40 0 -5 0 -8 4 -8 9 0 16 -30 12 -36 -5z"/>
<path d="M1039 1843 c0 -10 -3 -13 -6 -5 -2 6 -9 12 -14 12 -4 0 -6 -7 -3 -15
8 -19 44 -20 44 -1 0 22 -20 30 -21 9z"/>
<path d="M1620 1825 c0 -8 9 -15 19 -15 28 0 37 -20 12 -27 -12 -3 -21 -10
-21 -15 0 -6 9 -8 20 -5 28 7 25 -7 -5 -27 -14 -9 -25 -24 -26 -34 0 -13 -2
-14 -6 -2 -3 8 -21 29 -39 48 -30 31 -35 33 -49 19 -10 -11 -12 -18 -4 -22 6
-4 8 -14 5 -22 -4 -9 0 -13 12 -12 21 3 82 -32 82 -47 0 -21 -29 -39 -42 -26
-15 15 -31 16 -22 1 3 -6 0 -15 -7 -20 -10 -6 -11 -9 -1 -9 6 0 12 -7 12 -15
0 -20 4 -19 51 12 33 22 44 25 57 15 10 -7 27 -16 39 -22 18 -8 21 -15 16 -44
-5 -30 -1 -39 26 -63 36 -33 27 -53 -22 -53 -22 0 -28 -4 -25 -17 4 -20 68
-32 68 -13 0 6 10 14 21 18 12 5 27 23 35 40 12 30 12 32 -4 30 -24 -4 -29 57
-7 82 19 21 15 44 -16 94 -11 17 -19 39 -19 49 0 30 30 19 47 -18 20 -43 33
-45 33 -6 0 56 -92 85 -98 31 -2 -14 9 -47 23 -74 14 -27 24 -50 22 -53 -3 -2
-15 1 -29 7 -19 9 -26 23 -34 66 -6 32 -6 54 -1 54 5 0 7 9 4 20 -3 13 0 20 9
20 12 0 12 4 -2 25 -9 14 -12 25 -8 26 28 2 -39 18 -78 18 -36 1 -48 -3 -48
-14z m99 -110 c0 -55 -4 -85 -11 -85 -6 0 -24 14 -40 31 l-29 30 22 20 c12 10
26 19 30 19 5 0 4 11 -1 24 -8 22 3 46 22 46 4 0 7 -38 7 -85z m41 -145 c0
-24 -1 -24 -20 8 -25 41 -25 45 0 30 11 -7 20 -24 20 -38z"/>
<path d="M1970 1770 c0 -16 5 -30 10 -30 6 0 10 14 10 30 0 17 -4 30 -10 30
-5 0 -10 -13 -10 -30z"/>
<path d="M1978 1723 c-6 -30 -2 -313 4 -313 4 0 8 72 8 160 0 88 -2 160 -5
160 -3 0 -6 -3 -7 -7z"/>
<path d="M1652 1584 c-22 -15 -22 -17 -6 -41 l16 -26 -46 7 c-42 7 -45 5 -39
-11 12 -31 28 -42 47 -31 10 6 29 8 42 5 13 -2 31 1 40 7 14 11 14 13 0 25
-19 16 -21 38 -3 44 9 3 9 7 -2 20 -17 21 -21 21 -49 1z"/>
<path d="M970 1219 c0 -174 11 -213 78 -269 20 -17 47 -40 58 -51 12 -10 26
-19 30 -19 5 0 -21 28 -58 63 -36 34 -71 72 -77 84 -7 13 -11 83 -11 177 0 92
-4 157 -10 161 -6 4 -10 -47 -10 -146z"/>
<path d="M1158 1258 c-88 -30 -88 -30 -88 -64 0 -24 5 -34 15 -34 10 0 15 10
15 29 l0 28 73 -19 c39 -11 77 -20 82 -20 36 4 175 46 168 52 -4 4 -39 16 -78
27 -38 12 -77 23 -85 26 -8 3 -54 -8 -102 -25z m121 -19 c18 -6 29 -15 24 -19
-7 -8 -51 -14 -80 -11 -19 2 -15 29 5 34 9 3 17 5 18 6 1 0 16 -4 33 -10z"/>
<path d="M1162 1154 l3 -29 80 -3 c90 -2 107 4 98 36 -4 18 -10 21 -27 15 -27
-10 -93 -10 -129 1 -27 8 -28 7 -25 -20z"/>
<path d="M1305 1040 c-12 -4 -27 -15 -34 -24 -13 -15 -15 -15 -33 4 -22 24
-89 28 -107 6 -16 -20 -31 -75 -22 -81 5 -2 17 2 27 10 24 18 58 19 84 3 16
-10 24 -10 40 0 26 16 55 15 90 -3 27 -14 30 -14 40 4 20 39 12 68 -21 80 -36
13 -37 13 -64 1z m39 -40 c42 -16 30 -29 -15 -18 -28 8 -37 13 -27 19 16 11
12 11 42 -1z"/>
<path d="M1165 871 c-3 -6 2 -14 12 -18 10 -4 20 -9 23 -12 7 -9 180 -87 218
-99 29 -9 32 -9 22 4 -7 8 -20 14 -30 14 -21 0 -197 85 -222 107 -11 10 -18
11 -23 4z"/>
<path d="M2389 1865 c-39 -26 -49 -42 -49 -81 0 -21 3 -23 18 -13 15 9 62 68
85 106 13 21 -15 15 -54 -12z"/>
<path d="M500 1873 c1 -16 87 -118 102 -121 13 -2 14 3 9 30 -5 22 -20 43 -50
65 -42 32 -61 40 -61 26z"/>
<path d="M652 1763 c-7 -12 -12 -41 -13 -65 l0 -43 -16 32 c-15 29 -59 60 -71
49 -9 -10 20 -67 44 -85 42 -33 94 -5 94 48 -1 14 -7 40 -14 56 -12 30 -13 30
-24 8z"/>
<path d="M2270 1754 c-32 -83 29 -144 89 -90 22 20 47 74 38 83 -12 11 -57
-27 -71 -60 l-14 -32 -1 47 c-2 77 -22 103 -41 52z"/>
<path d="M681 1604 c-12 -15 -21 -42 -22 -63 l0 -36 -15 39 c-17 47 -32 66
-50 66 -17 0 -18 -43 -2 -73 16 -30 36 -44 62 -41 11 1 24 3 28 3 14 2 38 60
38 90 0 41 -14 46 -39 15z"/>
<path d="M2233 1615 c-8 -23 5 -76 24 -97 17 -19 39 -23 68 -12 30 12 68 114
42 114 -20 0 -57 -43 -57 -68 0 -11 -4 -24 -10 -27 -6 -4 -10 7 -10 27 0 54
-42 100 -57 63z"/>
<path d="M2227 1483 c-9 -15 10 -83 29 -104 30 -33 47 -25 39 19 -6 38 -58
102 -68 85z"/>
<path d="M2331 1464 c-21 -27 -30 -104 -12 -104 21 0 51 54 51 91 0 46 -11 49
-39 13z"/>
<path d="M580 1441 c0 -95 100 -121 136 -36 18 44 18 75 0 75 -20 0 -56 -48
-56 -76 0 -12 -4 -26 -10 -29 -6 -4 -10 8 -10 28 0 32 -29 77 -50 77 -6 0 -10
-18 -10 -39z"/>
<path d="M568 1345 c-9 -9 11 -99 25 -113 44 -44 114 -7 124 66 3 26 2 42 -5
42 -16 0 -62 -59 -62 -81 0 -10 -4 -19 -10 -19 -5 0 -10 13 -10 29 0 40 -44
94 -62 76z"/>
<path d="M2345 1330 c-10 -12 -22 -40 -25 -63 l-6 -42 -12 42 c-11 37 -42 73
-64 73 -11 0 -10 -44 2 -74 12 -32 58 -56 86 -46 32 13 54 50 54 92 0 43 -9
47 -35 18z"/>
<path d="M557 1203 c-2 -5 -2 -25 0 -45 9 -70 73 -106 120 -67 20 17 43 64 43
89 0 49 -65 -2 -76 -60 l-7 -34 -13 43 c-17 57 -54 98 -67 74z"/>
<path d="M2351 1184 c-12 -15 -21 -39 -21 -54 0 -44 -14 -44 -25 2 -7 29 -18
47 -37 57 -36 20 -44 10 -29 -38 35 -120 161 -87 161 42 0 25 -26 21 -49 -9z"/>
<path d="M549 1063 c-4 -24 5 -61 19 -85 14 -25 59 -54 69 -44 9 9 -21 88 -43
111 -23 25 -43 32 -45 18z"/>
<path d="M675 1045 c-23 -22 -31 -48 -25 -85 3 -20 5 -21 21 -15 21 8 38 39
45 85 8 47 -5 52 -41 15z"/>
<path d="M2230 1050 c0 -28 24 -82 43 -98 26 -22 78 -18 99 7 18 24 43 99 34
108 -21 21 -84 -54 -87 -104 -1 -10 -6 1 -12 24 -19 66 -77 114 -77 63z"/>
<path d="M696 921 c-19 -21 -23 -45 -12 -81 6 -21 1 -19 -31 17 -34 36 -70 63
-87 63 -13 0 -5 -37 14 -68 25 -40 81 -67 110 -52 32 17 50 52 50 97 0 48 -15
56 -44 24z"/>
<path d="M2217 933 c-12 -11 -7 -63 8 -93 39 -76 119 -54 160 43 15 36 15 37
-7 37 -13 0 -40 -20 -70 -52 -46 -50 -47 -51 -38 -19 10 36 4 60 -19 78 -19
14 -25 16 -34 6z"/>
<path d="M754 825 c-16 -24 -15 -27 10 -65 14 -22 25 -40 23 -40 -2 0 -22 9
-45 20 -22 11 -60 20 -84 20 l-43 -1 32 -29 c97 -88 212 -43 164 65 -24 55
-36 61 -57 30z"/>
<path d="M2151 817 c-47 -76 -13 -146 64 -134 34 6 114 54 115 70 0 15 -82 6
-120 -13 -52 -27 -53 -26 -26 15 25 36 25 65 1 85 -10 8 -18 2 -34 -23z"/>
<path d="M857 748 c-7 -26 7 -56 41 -86 l27 -24 -30 7 c-90 21 -175 11 -135
-15 8 -5 36 -17 63 -26 44 -15 49 -14 85 3 42 20 51 47 31 94 -10 25 -56 69
-72 69 -3 0 -7 -10 -10 -22z"/>
<path d="M2042 737 c-64 -66 -45 -142 35 -142 39 0 123 31 123 45 0 24 -88 26
-131 4 -40 -20 -49 -10 -15 17 32 25 47 58 39 88 -7 28 -14 27 -51 -12z"/>
<path d="M980 669 c0 -23 9 -41 35 -65 43 -40 44 -46 4 -32 -35 12 -115 6
-131 -10 -8 -8 -3 -14 18 -23 100 -38 174 -15 174 56 0 26 -9 40 -40 69 -49
44 -60 45 -60 5z"/>
<path d="M1909 661 c-28 -28 -39 -47 -39 -69 0 -63 85 -91 168 -56 35 15 36
16 18 30 -23 16 -93 19 -130 4 -35 -13 -33 -5 9 31 27 24 35 39 35 65 0 19 -5
34 -11 34 -6 0 -29 -17 -50 -39z"/>
<path d="M1110 620 c0 -32 19 -64 51 -85 40 -28 36 -34 -14 -23 -68 14 -171
-29 -105 -45 76 -18 113 -17 146 2 26 17 32 27 32 55 0 38 -29 80 -70 101 -37
19 -40 19 -40 -5z"/>
<path d="M1792 619 c-35 -23 -62 -65 -62 -98 0 -26 35 -58 72 -66 33 -8 128
12 128 27 0 5 -16 16 -37 24 -34 15 -77 13 -121 -4 -9 -3 2 12 26 34 32 31 42
48 42 72 0 38 -4 38 -48 11z"/>
<path d="M1250 557 c0 -28 8 -42 41 -72 22 -20 39 -38 37 -41 -3 -2 -19 1 -37
7 -37 13 -100 0 -120 -25 -17 -21 -2 -26 78 -29 54 -1 74 2 86 14 16 15 21 15
66 -4 87 -37 58 -50 -79 -37 -53 5 -136 16 -182 24 -156 27 -383 49 -452 43
-115 -10 -154 -42 -170 -142 -10 -57 -15 -68 -36 -76 -40 -15 -52 -6 -41 33 5
18 9 54 9 80 0 37 -4 50 -19 58 -30 16 -108 12 -191 -10 -94 -25 -177 -26
-202 -3 -17 15 -18 15 -18 -5 0 -30 18 -74 42 -99 20 -21 20 -24 4 -47 -9 -14
-25 -30 -36 -36 -28 -15 -25 -27 12 -46 36 -18 130 -15 245 10 l62 13 -6 -68
c-6 -67 -5 -69 21 -79 41 -15 127 -12 186 7 64 21 90 56 90 125 l0 47 48 -5
c26 -2 119 -11 207 -19 88 -8 221 -22 295 -30 194 -22 389 -19 660 9 129 13
273 27 320 31 47 3 97 8 113 11 25 5 27 3 27 -29 0 -72 11 -97 54 -125 34 -21
56 -27 127 -30 111 -6 124 5 115 91 l-6 60 33 -6 c122 -22 159 -27 212 -27 36
1 67 6 79 15 18 14 17 16 -18 55 -20 22 -36 42 -36 45 0 3 9 16 21 28 25 26
39 60 39 93 l0 25 -30 -22 c-28 -21 -34 -22 -97 -11 -38 6 -93 18 -123 27 -77
21 -141 20 -168 -5 -22 -21 -22 -47 -1 -129 5 -19 6 -37 4 -39 -3 -3 -19 -1
-37 4 -31 9 -34 14 -44 71 -19 106 -52 135 -169 148 -61 6 -371 -23 -470 -45
-58 -13 -254 -29 -272 -22 -24 8 -13 21 34 42 41 18 48 19 63 5 9 -8 30 -17
46 -20 37 -7 116 7 121 21 2 6 -14 19 -36 29 -34 15 -47 16 -83 7 -23 -6 -44
-10 -45 -8 -2 1 15 17 36 34 62 50 70 130 9 95 -44 -26 -78 -70 -78 -102 0
-22 -8 -31 -45 -49 -56 -27 -67 -27 -132 0 -48 20 -53 25 -53 53 0 32 -40 80
-87 104 -22 11 -23 10 -23 -22z m-252 -183 c57 -9 138 -17 180 -18 87 -3 144
-14 136 -27 -2 -4 -35 -7 -71 -5 -37 2 -77 -1 -90 -7 -16 -7 -27 -7 -38 3 -16
14 -45 19 -112 23 -23 1 -44 5 -48 9 -4 3 -22 4 -40 2 -19 -2 -37 0 -40 6 -3
6 -17 7 -31 4 -13 -3 -24 -2 -24 3 0 6 -10 15 -22 21 -30 14 55 8 200 -14z
m1199 12 c4 -3 -9 -6 -28 -6 -19 0 -40 -5 -45 -10 -6 -6 -35 -12 -65 -14 -30
-3 -74 -7 -99 -11 -25 -4 -56 -9 -69 -10 -12 -2 -34 -11 -48 -20 -17 -12 -28
-13 -37 -6 -15 13 -89 17 -133 7 -17 -4 -34 -3 -37 3 -12 19 80 40 202 45 68
3 129 9 135 13 24 15 211 22 224 9z m-1573 -93 c-3 -48 -9 -92 -15 -99 -5 -6
-10 -31 -10 -55 -2 -43 -13 -69 -30 -69 -5 0 -9 8 -10 18 0 14 -2 13 -9 -4 -9
-24 -26 -32 -88 -43 -62 -12 -78 6 -86 91 -3 39 -1 70 5 73 5 4 7 11 3 16 -3
6 0 24 6 40 10 23 10 33 1 42 -8 8 -11 8 -12 -1 -2 -12 -4 -26 -9 -39 -1 -5
-2 -16 -1 -25 1 -10 -3 -27 -10 -39 -15 -29 -31 -5 -18 28 12 31 11 94 -1 113
-7 11 -5 17 8 22 32 13 41 8 39 -19 -1 -18 3 -27 10 -26 7 2 12 0 12 -5 -1 -4
0 -11 1 -17 1 -5 1 -24 0 -42 -2 -46 15 -73 49 -73 40 0 79 34 87 75 3 19 10
35 15 35 5 0 9 12 9 27 0 27 37 76 51 67 4 -2 6 -44 3 -91z m1742 61 c3 -13
10 -24 14 -24 4 0 10 -22 14 -48 8 -61 49 -106 97 -104 17 0 34 4 38 7 3 4 6
38 6 76 0 38 3 69 6 69 3 0 12 -28 18 -62 14 -75 14 -77 11 -151 -4 -68 -20
-91 -59 -84 -68 14 -87 21 -103 34 -9 8 -21 12 -27 9 -12 -8 -34 30 -28 47 2
7 -4 36 -14 64 -10 29 -14 55 -10 57 4 3 4 33 0 68 -4 34 -5 66 -3 70 9 14 34
-4 40 -28z m-1626 1 c8 -2 17 -4 19 -4 2 -1 -4 -10 -14 -21 -12 -13 -15 -27
-11 -44 5 -22 3 -24 -21 -22 -16 2 -36 4 -46 5 -15 1 -17 7 -12 34 14 67 15
69 43 62 15 -4 34 -9 42 -10z m747 8 c-4 -3 1 -12 11 -19 26 -20 3 -33 -43
-25 -35 6 -37 8 -17 15 12 4 22 14 22 22 0 8 8 14 17 14 9 0 13 -3 10 -7z
m810 -40 c12 -54 10 -61 -12 -43 -13 11 -14 10 -9 -4 3 -9 1 -16 -5 -16 -6 0
-12 10 -12 23 l-2 22 -4 -22 c-5 -25 -38 -32 -46 -10 -3 7 -6 5 -6 -5 -2 -31
-21 -20 -21 11 0 17 -5 33 -12 37 -8 5 -9 -4 -4 -35 4 -28 3 -40 -4 -36 -5 3
-10 13 -10 21 0 8 -7 28 -15 44 -9 17 -12 30 -8 30 5 0 18 3 31 6 17 5 22 2
23 -12 0 -16 2 -16 11 4 12 24 23 28 34 11 4 -8 9 -7 15 2 8 12 11 11 19 -1 8
-13 10 -12 10 3 0 34 16 16 27 -30z m-1440 12 c10 -3 10 -11 3 -30 -6 -15 -8
-31 -4 -36 10 -17 24 1 24 32 0 16 5 29 11 29 7 0 9 -12 5 -35 -6 -28 -4 -35
9 -35 10 0 15 10 15 29 0 17 5 33 10 36 17 10 50 -5 51 -23 1 -15 2 -15 6 1 8
29 26 19 19 -10 l-6 -28 15 28 c15 26 35 37 35 18 0 -4 11 -6 25 -3 18 3 25 0
25 -12 0 -9 -5 -16 -11 -16 -5 0 -7 -5 -3 -11 3 -6 0 -15 -7 -20 -10 -6 -11
-9 -1 -9 6 0 12 -7 12 -16 0 -12 -6 -15 -22 -10 -13 3 -31 6 -40 6 -12 0 -19
8 -19 23 l-2 22 -4 -22 c-5 -27 -22 -31 -24 -5 -1 16 -2 16 -6 -1 -2 -9 -8
-15 -12 -13 -4 3 -33 8 -64 11 -31 3 -70 10 -87 15 -17 5 -38 6 -46 3 -11 -4
-14 4 -14 34 0 21 5 44 12 51 11 11 55 9 95 -3z m1817 4 c22 -10 24 -17 23
-67 -2 -51 -4 -56 -30 -65 -20 -6 -34 -5 -51 7 -33 21 -34 99 -2 122 25 17 28
17 60 3z m-2484 -64 c0 -36 -4 -65 -9 -65 -5 0 -16 -3 -25 -6 -13 -5 -16 2
-16 41 0 33 -5 52 -17 60 -23 17 -7 35 33 35 l34 0 0 -65z m121 55 c27 -15 26
-80 -1 -105 -25 -23 -95 -26 -95 -5 0 10 12 16 33 18 17 2 32 7 32 12 0 5 -15
10 -32 12 -28 3 -34 7 -36 32 -2 16 2 32 10 37 18 12 65 11 89 -1z m1808 -23
c21 -55 24 -72 10 -60 -10 10 -15 9 -25 -5 -12 -15 -13 -9 -14 41 0 59 12 69
29 24z m694 19 c11 -9 17 -27 17 -54 0 -34 -5 -45 -26 -59 -24 -15 -29 -15
-53 -2 -29 16 -40 73 -21 109 12 23 55 27 83 6z m-783 -7 c0 21 20 11 21 -11
l2 -23 4 23 c8 41 23 23 23 -28 0 -60 -12 -64 -33 -12 -14 34 -15 35 -10 6 3
-20 0 -34 -11 -43 -14 -12 -18 -9 -32 20 l-15 34 5 -32 c3 -19 1 -33 -4 -33
-6 0 -10 7 -10 15 0 8 -4 15 -10 15 -5 0 -7 -7 -4 -15 9 -22 -32 -20 -46 3 -9
15 -10 14 -5 -5 5 -18 2 -23 -13 -23 -15 0 -21 11 -29 50 -10 48 -9 50 13 50
13 0 24 -7 27 -17 4 -14 5 -13 6 4 1 24 27 26 42 2 7 -11 9 -10 9 5 0 15 3 16
14 7 11 -9 15 -8 20 5 5 13 9 14 21 4 10 -9 15 -9 15 -1z m-831 -36 c10 -17
10 -17 11 0 0 9 7 17 15 17 8 0 15 -7 15 -17 0 -14 2 -14 20 2 18 16 20 16 26
1 8 -20 24 -21 24 0 0 8 4 13 10 9 5 -3 30 -6 54 -7 35 0 45 -4 44 -17 -3 -36
3 -51 19 -51 13 0 14 3 5 12 -18 18 -15 58 4 58 10 0 13 -6 10 -17 -3 -10 -1
-25 4 -33 7 -11 10 -7 10 18 0 17 5 32 11 32 6 0 8 -8 5 -17 -6 -17 -5 -17 8
0 28 36 54 4 41 -53 -8 -36 -17 -38 -39 -7 -12 15 -15 16 -12 5 3 -10 1 -20
-4 -23 -6 -4 -11 2 -11 12 -1 17 -2 17 -6 1 -5 -20 -33 -25 -33 -7 0 8 -4 8
-12 1 -22 -17 -76 -3 -81 22 l-4 21 -8 -22 c-8 -25 -25 -31 -25 -10 0 8 -3 8
-9 -2 -12 -19 -39 -7 -44 21 -4 20 -4 20 -6 -4 -1 -27 -21 -41 -21 -15 0 8 -4
7 -10 -3 -8 -12 -10 -9 -10 13 0 25 -2 27 -15 13 -8 -8 -15 -19 -15 -25 0 -6
-5 -11 -11 -11 -8 0 -10 13 -5 38 3 20 6 43 6 50 0 18 27 15 39 -5z m431 -16
c0 -12 5 -29 11 -37 7 -11 8 -3 4 28 -4 26 -3 42 4 42 5 0 11 -17 13 -37 2
-20 9 -38 16 -41 9 -3 11 6 6 37 -4 28 -3 41 5 41 6 0 11 -6 12 -12 0 -10 2
-10 6 0 8 21 50 14 58 -10 l8 -23 4 23 c7 37 20 25 26 -25 6 -51 1 -66 -13
-43 -7 11 -11 11 -24 1 -14 -12 -16 -9 -16 28 0 22 -4 41 -9 41 -15 0 -23 -18
-11 -25 5 -3 10 -17 10 -30 0 -24 -2 -25 -66 -22 -36 2 -68 -1 -70 -5 -9 -15
-25 -8 -34 15 l-9 22 -2 -25 c-1 -14 -5 -2 -9 25 -8 54 -4 68 10 45 7 -10 10
-11 10 -2 0 6 5 12 10 12 6 0 11 -17 11 -37 1 -21 3 -29 6 -18 2 11 6 30 9 43
6 28 24 19 24 -11z m1239 -91 c-2 -2 -14 -7 -26 -10 -26 -8 -32 11 -11 32 10
9 15 9 27 -3 8 -8 13 -16 10 -19z"/>
<path d="M690 330 c13 -9 13 -11 0 -19 -8 -6 -11 -14 -6 -18 9 -10 38 26 30
38 -3 5 -13 9 -22 9 -15 0 -15 -2 -2 -10z"/>
<path d="M766 304 c-9 -23 -8 -24 14 -24 13 0 20 7 20 20 0 24 -25 27 -34 4z"/>
<path d="M1026 273 c-4 -9 -1 -20 6 -25 21 -13 28 -9 28 17 0 28 -24 34 -34 8z"/>
<path d="M2760 276 c0 -26 4 -36 16 -36 11 0 14 8 12 32 -4 46 -28 49 -28 4z"/>
<path d="M1360 260 c0 -5 5 -10 11 -10 8 0 8 -5 -1 -15 -11 -13 -9 -15 13 -15
23 0 24 2 14 25 -12 24 -37 35 -37 15z"/>
</g>
</svg>
